<svg xmlns="http://www.w3.org/2000/svg">
  <style>
    :root svg:not(:target) {
      display: none;
    }
  </style>

  <svg id="like-icon" width="22" height="20" viewBox="0 0 22 20" fill="none" xmlns="http://www.w3.org/2000/svg">
    <path d="M12.4 3.6L11.8 6.5L11.2 9H13.7H19.9V11C19.9 11 19.9 11 19.9 11.1L17 18H8V8L12.4 3.6ZM2 10V18V10ZM13.2 0L6.6 6.6C6.2 6.9 6 7.4 6 8V18C6 19.1 6.9 20 8 20H17C17.8 20 18.5 19.5 18.8 18.8L21.8 11.7C21.9 11.5 21.9 11.2 21.9 11V9H22C22 7.9 21.1 7 20 7H13.7L14.7 2.4V2.1C14.7 1.7 14.5 1.3 14.3 1L13.2 0ZM4 8H0V20H4V8Z" fill="#81B3D2"/>
  </svg>

  <svg id="htmlacademy" width="27" height="35" viewBox="0 0 27 35" fill="none" xmlns="http://www.w3.org/2000/svg">
    <path d="M13.65 0.449951H13.55L0.0500031 1.84995V26.55L13.55 34.5499L26.95 26.55V1.84995L13.65 0.449951ZM25.05 12.55L13.55 5.74995V5.64995H13.45L13.35 5.54995V5.64995L1.95 12.55V3.54995L13.45 2.34995L25.05 3.54995V12.55ZM13.45 7.24995L24.95 13.95L20.45 16.55L13.35 12.35V13.75L19.25 17.25L18.35 17.75L13.35 14.75V16.15L17.15 18.45L16.35 18.95L13.35 17.15V18.55L15.25 19.65L13.45 20.75L2.05 14.05L13.45 7.24995ZM1.95 15.55L13.35 22.35V23.35L5.45 18.65V20.05L13.45 24.85V25.95L5.45 21.25V22.65L13.45 27.45L21.55 22.55V17.35L24.95 15.35V25.35L13.45 32.25L1.95 25.45V15.55Z" fill="black"/>
  </svg>

  <svg id="checkbox-checked" viewBox="0 0 22 16" fill="none" xmlns="http://www.w3.org/2000/svg">
    <path d="M21.8053 1.30662L20.759 0.22188C20.4736 -0.0739599 19.9029 -0.0739599 19.6176 0.22188L8.29884 11.9569L2.40167 5.84283C2.11633 5.54699 1.54563 5.54699 1.26028 5.84283L0.21401 6.92758C-0.0713367 7.22342 -0.0713367 7.8151 0.21401 8.11094L7.63303 15.8028C7.82326 16 8.01349 16 8.20373 16C8.39396 16 8.58419 15.9014 8.77442 15.8028L21.615 2.48999C22.0906 2.19415 22.0906 1.70108 21.8053 1.30662Z" fill="#333333"/>
  </svg>

  <svg id="play-btn" width="48" height="54" viewBox="0 0 48 54" fill="none" xmlns="http://www.w3.org/2000/svg">
    <path d="M48 27L0 54L2.42273e-06 0L48 27Z" fill="white" fill-opacity="0.7"/>
  </svg>

  <svg id="checked-radio" viewBox="0 0 16 16" fill="none" xmlns="http://www.w3.org/2000/svg">
    <path fill-rule="evenodd" clip-rule="evenodd" d="M8.0001 0C12.4181 0 16 3.58373 16 7.99973C16 12.4189 12.4181 16 8.0001 16C3.58178 16 0 12.4189 0 7.99973C0 3.58373 3.58178 0 8.0001 0Z" fill="#333333"/>
  </svg>


  <svg id="icon-menu-burger" width="23" height="22" viewBox="0 0 23 22" fill="none" xmlns="http://www.w3.org/2000/svg">
    <path d="M22.9 0H0V4H22.9V0Z" fill="#81B3D2"/>
    <path d="M22.9 9H0V13H22.9V9Z" fill="#81B3D2"/>
    <path d="M22.9 18H0V22H22.9V18Z" fill="#81B3D2"/>
  </svg>

  <svg id="icon-cross" width="26" height="25" viewBox="0 0 26 25" fill="#fff" xmlns="http://www.w3.org/2000/svg">
    <path d="M26 3.15315L22.7207 0L13 9.34685L3.27928 0L0 3.15315L9.72072 12.5L0 21.8468L3.27928 25L13 15.6532L22.7207 25L26 21.8468L16.2793 12.5L26 3.15315Z"/>
  </svg>

  <svg id="youtube" viewBox="0 0 20 14" fill="none" xmlns="http://www.w3.org/2000/svg">
    <path d="M17.1813 0H2.81331C1.30618 0 0 1.3 0 2.8V11.1C0 12.7 1.30618 14 2.81331 14H17.1813C18.7889 14 19.9946 12.7 19.9946 11.2V2.8C20.095 1.3 18.7889 0 17.1813 0ZM7.03326 10.4V3.6L13.8656 7L7.03326 10.4Z" fill="white"/>
  </svg>

  <svg id="telegram" viewBox="0 0 24 24" fill="none" xmlns="http://www.w3.org/2000/svg">
    <path d="M22.4393 4.62225L19.2705 19.566C19.0313 20.6205 18.408 20.883 17.5223 20.3865L12.6938 16.8285L10.3643 19.0695C10.1063 19.3275 9.89102 19.5428 9.39377 19.5428L9.74102 14.6258L18.6893 6.54C19.0785 6.1935 18.6045 6.00075 18.0848 6.348L7.02227 13.314L2.25977 11.823C1.22402 11.4998 1.20527 10.7873 2.47577 10.29L21.1035 3.11325C21.966 2.79 22.7205 3.30525 22.4393 4.623V4.62225Z" fill="white"/>
  </svg>

  <svg id="vk" viewBox="0 0 24 24" fill="none" xmlns="http://www.w3.org/2000/svg">
    <g clip-path="url(#clip0_29549_1753)">
      <path fill-rule="evenodd" clip-rule="evenodd" d="M23.45 5.948C23.616 5.402 23.45 5 22.655 5H20.03C19.362 5 19.054 5.347 18.887 5.73C18.887 5.73 17.552 8.926 15.661 11.002C15.049 11.604 14.771 11.795 14.437 11.795C14.27 11.795 14.019 11.604 14.019 11.057V5.948C14.019 5.292 13.835 5 13.279 5H9.151C8.734 5 8.483 5.304 8.483 5.593C8.483 6.214 9.429 6.358 9.526 8.106V11.904C9.526 12.737 9.373 12.888 9.039 12.888C8.149 12.888 5.984 9.677 4.699 6.003C4.45 5.288 4.198 5 3.527 5H0.9C0.15 5 0 5.347 0 5.73C0 6.412 0.89 9.8 4.145 14.281C6.315 17.341 9.37 19 12.153 19C13.822 19 14.028 18.632 14.028 17.997V15.684C14.028 14.947 14.186 14.8 14.715 14.8C15.105 14.8 15.772 14.992 17.33 16.467C19.11 18.216 19.403 19 20.405 19H23.03C23.78 19 24.156 18.632 23.94 17.904C23.702 17.18 22.852 16.129 21.725 14.882C21.113 14.172 20.195 13.407 19.916 13.024C19.527 12.533 19.638 12.314 19.916 11.877C19.916 11.877 23.116 7.451 23.449 5.948H23.45Z" fill="white"/>
    </g>
    <defs>
      <clipPath id="clip0_29549_1753">
        <rect width="24" height="24" fill="white"/>
      </clipPath>
    </defs>
  </svg>

  <svg id="icon-burger" viewBox="0 0 82 68" fill="none" xmlns="http://www.w3.org/2000/svg">
    <path d="M76.5286 45.3324H5.36029C2.8336 45.3324 0.833313 47.3034 0.833313 49.57V53.0192C0.833313 55.2858 2.8336 57.1582 5.36029 57.1582H6.41307V58.1437C6.41307 63.5639 11.1506 67.9 16.8356 67.9H65.0532C70.8435 67.9 75.4758 63.4653 75.4758 58.1437V57.1582H76.5286C78.95 57.1582 81.0555 55.2858 81.0555 52.9206V49.4714C81.0555 47.3034 79.0553 45.3324 76.5286 45.3324ZM72.4227 58.1437C72.4227 61.8886 69.1591 64.9436 65.1585 64.9436H16.7304C12.7298 64.9436 9.46615 61.8886 9.46615 58.1437V57.1582H72.4227V58.1437ZM77.8972 52.9206C77.8972 53.6105 77.2655 54.2018 76.5286 54.2018H5.36029C4.62334 54.2018 3.99167 53.6105 3.99167 52.9206V49.4714C3.99167 48.8801 4.62334 48.2889 5.36029 48.2889H76.6338C77.3708 48.2889 78.0025 48.8801 78.0025 49.57V52.9206H77.8972Z" fill="#81B3D2"/>
    <path d="M17.8885 37.3496L23.5735 41.2915L29.3639 37.3496L35.1542 41.2915L40.9445 37.3496L46.6295 41.2915L52.4198 37.3496L58.2102 41.2915L64.0005 37.3496L69.7908 41.2915L76.4233 36.6597L74.6336 34.2946L69.7908 37.5467L64.0005 33.6047L58.2102 37.5467L52.4198 33.6047L46.6295 37.5467L40.9445 33.6047L35.1542 37.5467L29.3639 33.6047L23.5735 37.5467L17.8885 33.6047L12.0982 37.5467L7.25536 34.2946L5.36035 36.6597L12.0982 41.2915L17.8885 37.3496Z" fill="#81B3D2"/>
    <path d="M75.4757 30.6486C75.4757 30.0573 75.581 28.0864 75.4757 27.6922C74.7388 12.3186 59.5787 0 40.9444 0C22.3101 0 7.04469 12.3186 6.30774 27.6922C6.30774 28.0864 6.30774 30.0573 6.30774 30.6486H75.4757ZM40.9444 2.95646C57.7889 2.95646 71.6857 13.9939 72.3174 27.6922H9.46609C10.203 13.9939 24.0998 2.95646 40.9444 2.95646Z" fill="#81B3D2"/>
    <path d="M40.9444 16.7532C42.1073 16.7532 43.05 15.8708 43.05 14.7823C43.05 13.6937 42.1073 12.8113 40.9444 12.8113C39.7816 12.8113 38.8389 13.6937 38.8389 14.7823C38.8389 15.8708 39.7816 16.7532 40.9444 16.7532Z" fill="#81B3D2"/>
    <path d="M32.5221 11.924C33.685 11.924 34.6277 11.0416 34.6277 9.95303C34.6277 8.86449 33.685 7.98206 32.5221 7.98206C31.3593 7.98206 30.4166 8.86449 30.4166 9.95303C30.4166 11.0416 31.3593 11.924 32.5221 11.924Z" fill="#81B3D2"/>
    <path d="M49.3667 11.924C50.5296 11.924 51.4723 11.0416 51.4723 9.95303C51.4723 8.86449 50.5296 7.98206 49.3667 7.98206C48.2039 7.98206 47.2612 8.86449 47.2612 9.95303C47.2612 11.0416 48.2039 11.924 49.3667 11.924Z" fill="#81B3D2"/>
  </svg>

  <svg id="icon-burger-desktop" viewBox="0 0 74 69" fill="none" xmlns="http://www.w3.org/2000/svg">
    <path d="M69.0544 46H4.26203C1.96171 46 0.140625 48 0.140625 50.3V53.8C0.140625 56.1 1.96171 58 4.26203 58H5.2205V59C5.2205 64.5 9.5336 68.9 14.7093 68.9H58.6071C63.8786 68.9 68.0959 64.4 68.0959 59V58H69.0544C71.2588 58 73.1758 56.1 73.1758 53.7V50.2C73.1758 48 71.3547 46 69.0544 46ZM65.3163 59C65.3163 62.8 62.3451 65.9 58.7029 65.9H14.6135C10.9713 65.9 8.00005 62.8 8.00005 59V58H65.3163V59ZM70.3004 53.7C70.3004 54.4 69.7253 55 69.0544 55H4.26203C3.5911 55 3.01602 54.4 3.01602 53.7V50.2C3.01602 49.6 3.5911 49 4.26203 49H69.1502C69.8211 49 70.3962 49.6 70.3962 50.3V53.7H70.3004Z" fill="#81B3D2"/>
    <path d="M15.6678 37.9L20.8436 41.9L26.1151 37.9L31.3867 41.9L36.6583 37.9L41.834 41.9L47.1055 37.9L52.3771 41.9L57.6487 37.9L62.9202 41.9L68.9586 37.2L67.3292 34.8L62.9202 38.1L57.6487 34.1L52.3771 38.1L47.1055 34.1L41.834 38.1L36.6583 34.1L31.3867 38.1L26.1151 34.1L20.8436 38.1L15.6678 34.1L10.3963 38.1L5.98732 34.8L4.26208 37.2L10.3963 41.9L15.6678 37.9Z" fill="#81B3D2"/>
    <path d="M68.0958 31.1C68.0958 30.5 68.1916 28.5 68.0958 28.1C67.4248 12.5 53.6229 0 36.6581 0C19.6932 0 5.79544 12.5 5.12451 28.1C5.12451 28.5 5.12451 30.5 5.12451 31.1H68.0958ZM36.6581 3C51.9935 3 64.6453 14.2 65.2204 28.1H7.99991C8.67084 14.2 21.3226 3 36.6581 3Z" fill="#81B3D2"/>
    <path d="M36.6581 17C37.7168 17 38.5751 16.1046 38.5751 15C38.5751 13.8954 37.7168 13 36.6581 13C35.5995 13 34.7412 13.8954 34.7412 15C34.7412 16.1046 35.5995 17 36.6581 17Z" fill="#81B3D2"/>
    <path d="M28.9904 12.1C30.0491 12.1 30.9074 11.2045 30.9074 10.1C30.9074 8.99541 30.0491 8.09998 28.9904 8.09998C27.9317 8.09998 27.0735 8.99541 27.0735 10.1C27.0735 11.2045 27.9317 12.1 28.9904 12.1Z" fill="#81B3D2"/>
    <path d="M44.3259 12.1C45.3846 12.1 46.2428 11.2045 46.2428 10.1C46.2428 8.99541 45.3846 8.09998 44.3259 8.09998C43.2672 8.09998 42.4089 8.99541 42.4089 10.1C42.4089 11.2045 43.2672 12.1 44.3259 12.1Z" fill="#81B3D2"/>
  </svg>

  <svg id="icon-gift" viewBox="0 0 67 75" fill="none" xmlns="http://www.w3.org/2000/svg">
    <path d="M64.016 22.1167H63.9104H38.2583C52.615 15.3189 53.7762 11.0202 53.2484 8.62098C52.0872 4.72221 47.3368 1.72316 42.9031 3.32266C37.0971 5.42199 35.5136 13.6194 33.9302 19.5175C31.9245 13.5194 30.0243 5.92183 25.485 2.02307C24.2183 0.923414 22.3181 -0.176239 19.4679 0.0236982C15.2453 0.423572 9.22814 5.32202 11.7617 10.8203C14.0841 16.1186 21.7903 19.5175 26.9629 22.2167H3.42211C1.73308 22.2167 0.466309 23.5163 0.466309 25.0158V36.2123C0.466309 37.8118 1.83864 39.0114 3.42211 39.0114H3.7388V75H63.9104V39.0114H64.016C65.705 39.0114 66.9718 37.7118 66.9718 36.2123V25.0158C66.9718 23.4163 65.5994 22.1167 64.016 22.1167ZM44.5922 5.82187C46.809 5.52196 49.7648 7.12146 50.0815 9.02085C50.5038 11.72 46.5979 14.2192 44.8033 15.3189C42.1642 17.0183 39.6306 17.918 37.2027 19.3176C38.0472 15.6188 39.8418 6.42168 44.5922 5.82187ZM20.7346 15.6188C18.4122 14.1192 13.9785 11.2202 14.0841 7.9212C14.1897 4.32234 20.1013 1.42326 23.2682 4.1224C27.2796 7.42136 29.1798 15.1189 30.6577 20.5172C27.2796 18.9177 24.1127 17.7181 20.7346 15.6188ZM26.9629 72.0009H6.80016V39.0114H26.9629V72.0009ZM26.9629 36.0123H3.63324V25.1158H26.9629V36.0123ZM37.5194 72.0009H30.0243V25.1158H37.5194V72.0009ZM60.7435 72.0009H40.6863V39.0114H60.8491V72.0009H60.7435ZM63.8049 36.0123H40.6863V25.1158H63.8049V36.0123Z" fill="#81B3D2"/>
  </svg>

  <svg id="icon-gift-desktop" fill="none" xmlns="http://www.w3.org/2000/svg">
    <path d="M74.4427 22.1237H74.3197H44.4427C61.164 15.3237 62.5164 11.0237 61.9017 8.62371C60.5492 4.72371 55.0164 1.72371 49.8525 3.32371C43.0902 5.42371 41.2459 13.6237 39.4017 19.5237C37.0656 13.5237 34.8525 5.92371 29.5656 2.02371C28.0902 0.923705 25.8771 -0.176294 22.5574 0.0237057C17.6394 0.423706 10.6312 5.32371 13.582 10.8237C16.2869 16.1237 25.2623 19.5237 31.2869 22.2237H3.86889C1.90168 22.2237 0.42627 23.5237 0.42627 25.0237V36.2237C0.42627 37.8237 2.02463 39.0237 3.86889 39.0237H4.23774V75.0237H74.3197V39.0237H74.4427C76.4099 39.0237 77.8853 37.7237 77.8853 36.2237V25.0237C77.8853 23.4237 76.2869 22.1237 74.4427 22.1237ZM51.8197 5.82371C54.4017 5.52371 57.8443 7.12371 58.2132 9.02371C58.705 11.7237 54.1558 14.2237 52.0656 15.3237C48.9918 17.0237 46.041 17.9237 43.2132 19.3237C44.1968 15.6237 46.2869 6.42371 51.8197 5.82371ZM24.0328 15.6237C21.3279 14.1237 16.164 11.2237 16.2869 7.92371C16.4099 4.32371 23.2951 1.42371 26.9836 4.12371C31.6558 7.42371 33.8689 15.1237 35.5902 20.5237C31.6558 18.9237 27.9673 17.7237 24.0328 15.6237ZM31.2869 72.0237H7.80332V39.0237H31.2869V72.0237ZM31.2869 36.0237H4.11479V25.1237H31.2869V36.0237ZM43.582 72.0237H34.8525V25.1237H43.582V72.0237ZM70.6312 72.0237H47.2705V39.0237H70.7541V72.0237H70.6312ZM74.1968 36.0237H47.2705V25.1237H74.1968V36.0237Z" fill="#81B3D2"/>
  </svg>

  <svg id="icon-house" viewBox="0 0 78 72" fill="none" xmlns="http://www.w3.org/2000/svg">
    <path d="M30.8784 64.9389H47.3768V41.1709H30.8784V64.9389ZM44.3865 62.0549H33.8688V44.0549H44.2834V62.0549H44.3865Z" fill="#81B3D2"/>
    <path d="M75.3211 39.1823L77.4865 37.0939L67.2781 27.2486V0.39779H53.0482V13.5249L38.9214 0L0.459473 37.1934L2.62489 39.2818L10.6679 31.5249V69.116H6.64638V72H72.537V69.116H67.2781V31.4254L75.3211 39.1823ZM56.0385 3.38122H64.1846V24.3646L56.0385 16.5083V3.38122ZM64.2878 69.0166H13.7613V28.5414L38.9214 4.1768L64.1846 28.5414V69.0166H64.2878Z" fill="#81B3D2"/>
    <path d="M31.1879 27.0491C31.1879 31.3253 34.7969 34.806 39.1277 34.806C43.5617 34.806 47.1707 31.3253 47.1707 27.0491C47.1707 22.7728 43.5617 19.3916 39.1277 19.3916C34.6938 19.3916 31.1879 22.7728 31.1879 27.0491ZM39.1277 22.0767C41.9118 22.0767 44.2835 24.2645 44.2835 27.0491C44.2835 29.7341 42.015 32.0214 39.1277 32.0214C36.3436 32.0214 33.972 29.8336 33.972 27.0491C33.972 24.364 36.3436 22.0767 39.1277 22.0767Z" fill="#81B3D2"/>
    <path d="M20.9794 41.1709H17.8859V45.0493H20.9794V41.1709Z" fill="#81B3D2"/>
    <path d="M27.0631 41.1709H23.9697V45.0493H27.0631V41.1709Z" fill="#81B3D2"/>
    <path d="M20.9794 47.1387H17.8859V51.0171H20.9794V47.1387Z" fill="#81B3D2"/>
    <path d="M27.0631 47.1387H23.9697V51.0171H27.0631V47.1387Z" fill="#81B3D2"/>
    <path d="M53.8731 41.1709H50.7797V45.0493H53.8731V41.1709Z" fill="#81B3D2"/>
    <path d="M60.06 41.1709H56.9666V45.0493H60.06V41.1709Z" fill="#81B3D2"/>
    <path d="M53.8731 47.1387H50.7797V51.0171H53.8731V47.1387Z" fill="#81B3D2"/>
    <path d="M60.06 47.1387H56.9666V51.0171H60.06V47.1387Z" fill="#81B3D2"/>
  </svg>

  <svg id="icon-house-desktop" width="81" height="73" viewBox="0 0 81 73" fill="none" xmlns="http://www.w3.org/2000/svg">
    <path d="M31.9574 65.3H48.9787V41.4H31.9574V65.3ZM45.8936 62.4H35.0425V44.3H45.7872V62.4H45.8936Z" fill="#81B3D2"/>
    <path d="M77.8085 39.4L80.0425 37.3L69.5106 27.4V0.4H54.8298V13.6L40.2553 0L0.574463 37.4L2.80851 39.5L11.1064 31.7V69.5H6.95744V72.4H74.9362V69.5H69.5106V31.6L77.8085 39.4ZM57.9149 3.4H66.3191V24.5L57.9149 16.6V3.4ZM66.4255 69.4H14.2979V28.7L40.2553 4.2L66.3191 28.7V69.4H66.4255Z" fill="#81B3D2"/>
    <path d="M32.2766 27.2C32.2766 31.5 36 35 40.4681 35C45.0426 35 48.766 31.5 48.766 27.2C48.766 22.9 45.0426 19.5 40.4681 19.5C35.8936 19.5 32.2766 22.9 32.2766 27.2ZM40.4681 22.2C43.3404 22.2 45.7873 24.4 45.7873 27.2C45.7873 29.9 43.4468 32.2 40.4681 32.2C37.5958 32.2 35.149 30 35.149 27.2C35.149 24.5 37.5958 22.2 40.4681 22.2Z" fill="#81B3D2"/>
    <path d="M21.7447 41.4H18.5532V45.3H21.7447V41.4Z" fill="#81B3D2"/>
    <path d="M28.0213 41.4H24.8298V45.3H28.0213V41.4Z" fill="#81B3D2"/>
    <path d="M21.7447 47.4H18.5532V51.3H21.7447V47.4Z" fill="#81B3D2"/>
    <path d="M28.0213 47.4H24.8298V51.3H28.0213V47.4Z" fill="#81B3D2"/>
    <path d="M55.6809 41.4H52.4894V45.3H55.6809V41.4Z" fill="#81B3D2"/>
    <path d="M62.0639 41.4H58.8724V45.3H62.0639V41.4Z" fill="#81B3D2"/>
    <path d="M55.6809 47.4H52.4894V51.3H55.6809V47.4Z" fill="#81B3D2"/>
    <path d="M62.0639 47.4H58.8724V51.3H62.0639V47.4Z" fill="#81B3D2"/>
  </svg>

  <svg id="intro-triangle" viewBox="0 0 1200 57" fill="none" xmlns="http://www.w3.org/2000/svg">
    <path d="M249.6 23.7L0 0V57H249.6H600L249.6 0V23.7Z" fill="white"/>
    <path d="M950.4 23.7V0L600 57H950.4H1199.9V0L950.4 23.7Z" fill="white"/>
  </svg>

  <svg id="email-icon" viewBox="0 0 16 12" fill="none" xmlns="http://www.w3.org/2000/svg">
    <path d="M8 8C7.7 8 7.5 7.9 7 7.7L0 4V11C0 11.5 0.5 12 1 12H15C15.5 12 16 11.5 16 11V4L9 7.7C8.5 7.9 8.3 8 8 8ZM15 0H1C0.5 0 0 0.5 0 1V1.8L8 6L16 1.8V1C16 0.5 15.5 0 15 0Z" fill="black"/>
  </svg>

  <svg id="phone-icon" viewBox="0 0 18 18" fill="none" xmlns="http://www.w3.org/2000/svg">
    <path d="M3.6 7.8C5 10.6 7.4 12.9 10.2 14.4L12.4 12.2C12.7 11.9 13.1 11.8 13.4 12C14.5 12.4 15.7 12.6 17 12.6C17.6 12.6 18 13 18 13.6V17C18 17.6 17.6 18 17 18C7.6 18 0 10.4 0 1C0 0.4 0.4 0 1 0H4.5C5.1 0 5.5 0.4 5.5 1C5.5 2.2 5.7 3.4 6.1 4.6C6.2 4.9 6.1 5.3 5.9 5.6L3.6 7.8Z" fill="#010101"/>
  </svg>

  <svg id="map-marker" viewBox="0 0 27 27" fill="none" xmlns="http://www.w3.org/2000/svg">
    <path d="M13.5 27C20.9558 27 27 20.9558 27 13.5C27 6.04416 20.9558 0 13.5 0C6.04416 0 0 6.04416 0 13.5C0 20.9558 6.04416 27 13.5 27Z" fill="white"/>
    <path d="M13.5 21.8996C18.1392 21.8996 21.9 18.1388 21.9 13.4996C21.9 8.86042 18.1392 5.09961 13.5 5.09961C8.86078 5.09961 5.09998 8.86042 5.09998 13.4996C5.09998 18.1388 8.86078 21.8996 13.5 21.8996Z" fill="#81B3D3"/>
  </svg>


  <svg id="logo" viewBox="0 0 185 96" fill="none" xmlns="http://www.w3.org/2000/svg">
    <path d="M185 0H0L79.8097 90.1011C86.8489 97.9663 98.2503 97.9663 105.289 90.1011L185 0Z" fill="#81B3D3"/>
    <path d="M42.8296 0.696915L92.0043 58.8395L140.882 1.09515L42.8296 0.696915Z" fill="#23A9E1"/>
    <path d="M120.954 17.2237C115.898 17.2237 110.941 17.3233 105.884 17.3233C111.833 10.4537 114.51 11.1506 120.954 17.2237Z" fill="white"/>
    <path d="M80.1072 22.5999C88.9309 22.5999 97.7546 22.5999 106.578 22.5999C104.595 21.4052 99.9357 15.5312 97.358 17.7215C97.1597 17.9207 89.9223 8.86077 85.1635 13.2414C80.9995 17.0246 79.1158 12.7436 74.3569 15.7304C69.1024 19.3145 77.5295 21.4052 80.1072 22.5999Z" fill="white"/>
    <path d="M92.3017 0H41.8382V22.4008L92.0043 83.6298L92.3017 83.2315L142.567 23.0977V0H92.3017ZM54.4293 1.79207H59.8821V18.9163L54.4293 12.4449V1.79207ZM53.6361 11.5489L48.679 5.67488V1.79207H53.6361V11.5489ZM72.7706 8.86077L67.1195 1.79207H72.7706V8.86077ZM66.2272 12.644L60.6752 1.79207H66.2272V12.644ZM60.5761 3.38501L66.0289 14.0379C63.2529 16.1286 61.3692 18.0202 60.5761 18.9163V3.38501ZM67.0204 2.88722L72.5723 9.75681C71.4818 10.3542 70.3912 11.0511 69.4989 11.6484C68.6066 12.2458 67.8135 12.8431 67.0204 13.4405V2.88722ZM73.5638 2.6881L78.3226 6.86959C76.6372 7.5665 75.0509 8.36298 73.5638 9.15945V2.6881ZM79.1158 6.57091L73.7621 1.79207H79.7106V6.37179C79.4132 6.37179 79.314 6.47135 79.1158 6.57091ZM98.052 1.79207H103.009L98.052 4.18149V1.79207ZM92.3017 1.79207H96.664L92.3017 3.88281V1.79207ZM91.4094 3.78325L87.2454 1.79207H91.4094V3.78325ZM85.9566 4.28105L80.9003 1.79207H85.9566V4.28105ZM80.4046 2.38942L85.0643 4.67928C83.478 5.07752 81.8917 5.47576 80.4046 5.97355V2.38942ZM86.7497 2.38942L90.1206 3.98237C88.9309 4.08193 87.8403 4.18149 86.6506 4.38061V2.38942H86.7497ZM97.0606 2.48898V4.38061C95.97 4.18149 94.8794 4.08193 93.6897 3.98237L97.0606 2.48898ZM103.505 2.38942V6.07311C102.018 5.57532 100.431 5.07752 98.746 4.67928L103.505 2.38942ZM104.199 1.79207H110.048L104.695 6.57091C104.496 6.47135 104.397 6.47135 104.199 6.37179V1.79207ZM117.682 1.79207H123.234L117.682 12.644V1.79207ZM111.139 1.79207H116.79L111.139 8.76121V1.79207ZM110.346 2.6881V9.15945C108.859 8.36298 107.272 7.5665 105.587 6.86959L110.346 2.6881ZM116.889 2.88722V13.3409C116.195 12.8431 115.402 12.3453 114.609 11.748C113.617 11.0511 112.428 10.3542 111.238 9.65725L116.889 2.88722ZM123.234 3.38501V18.518C122.144 17.5224 120.359 15.8299 117.781 13.9383L123.234 3.38501ZM124.027 19.3145V1.79207H129.48V13.1418L124.027 19.3145C124.126 19.4141 124.027 19.4141 124.027 19.3145ZM130.273 1.79207H135.23V6.47135L130.273 12.2458V1.79207ZM47.985 1.79207V4.67928L45.5064 1.79207H47.985ZM60.6752 19.9118L60.7744 20.0114C60.7744 20.0114 64.3435 16.1286 69.8955 12.4449C75.1501 8.96033 83.0815 4.8784 92.0043 4.97796C100.828 4.97796 108.958 9.15945 114.113 12.644C119.665 16.3277 123.333 20.111 123.432 20.2105L119.566 24.6907C112.725 25.5867 107.768 30.7638 101.125 29.6687C97.7546 29.0713 97.6554 27.1797 96.664 25.1885C95.97 23.6951 94.7803 23.8942 93.194 23.2969C91.806 22.6995 90.9137 21.6044 88.0386 22.2017C85.56 22.7991 85.2626 26.6819 82.09 26.4828C80.4046 26.3832 80.3055 23.9938 77.926 21.007C71.6801 13.4405 65.8307 14.5356 61.865 21.5048L91.9051 57.2466L60.6752 19.9118ZM135.924 5.47576V1.79207H139.097L135.924 5.47576Z" fill="#491213"/>
    <path d="M87.9394 70.5875L92.0043 64.1161L95.97 70.5875L92.0043 77.0589L87.9394 70.5875Z" fill="#23A9E1"/>
    <path d="M64.9384 32.1576C65.4341 32.755 65.8307 33.4519 65.7315 34.2484C65.6324 34.8457 64.8392 35.8413 65.4341 36.0404C66.1281 35.1444 66.9212 34.1488 67.6152 33.2528C67.0204 33.0537 62.2615 27.4783 62.2615 26.7814C61.171 27.3788 60.1795 27.9761 59.089 28.4739C59.2873 29.1709 60.3778 28.4739 60.9727 28.4739C61.7658 28.5735 62.3607 29.0713 62.9555 29.6687C61.2701 31.0625 57.1061 34.6466 56.6104 34.7462C56.4121 34.7462 55.5198 34.1488 55.5198 34.6466C55.5198 34.9453 56.4121 35.6422 56.5113 35.8413C57.2053 36.7374 57.9984 37.6334 58.6924 38.5294C59.2873 38.2307 58.5933 37.8325 58.8907 37.3347C59.1881 36.9365 63.7487 33.0537 64.9384 32.1576Z" fill="white"/>
    <path d="M59.6838 25.1885C60.0804 25.0889 60.2787 25.5867 60.6752 25.0889C59.8821 24.0933 59.089 23.1973 58.2958 22.2017C57.8992 21.8035 57.5027 21.3057 57.6018 22.2017C57.701 22.7991 51.5541 27.8766 51.1576 27.9761C50.6618 28.1753 50.3644 27.5779 50.067 28.0757C50.761 28.9717 51.5541 29.7682 52.2481 30.6642C52.4464 30.9629 52.7438 31.2616 52.9421 31.5603C53.2395 31.859 53.1404 30.8634 53.1404 30.9629C53.0413 30.4651 53.6361 30.0669 54.0327 29.7682C55.5198 28.4739 59.2872 25.1885 59.6838 25.1885Z" fill="white"/>
    <path d="M50.9593 24.2925C49.1747 24.7903 47.291 24.0933 46.7953 22.3013C46.2996 20.5092 47.3901 18.518 48.8773 17.5224C50.2653 16.5268 52.4464 16.5268 53.2396 18.3189C53.537 19.1154 53.4378 20.0114 53.1404 20.8079C52.9421 21.3057 52.5456 21.8035 53.2396 22.1022C54.1318 21.007 54.925 19.9118 55.8173 18.8167C54.7267 18.2193 54.3301 17.1242 53.537 16.2282C52.6447 15.133 51.455 14.1374 50.067 13.9383C47.1919 13.5401 44.515 16.5268 44.3167 19.1154C44.2176 20.6088 44.7133 21.903 45.5064 23.0977C46.2996 24.0933 47.3901 24.6907 47.8859 25.8854C48.1833 25.985 50.5627 24.8898 51.1576 24.5911C51.0584 24.4916 51.0584 24.392 50.9593 24.2925C50.9593 24.2925 50.2653 24.4916 50.9593 24.2925Z" fill="white"/>
    <path d="M89.9223 60.532C88.7326 59.7355 85.9566 55.8527 85.3617 55.2554C85.2626 55.1558 85.1635 54.9567 85.0643 54.8571C85.0643 54.8571 84.7669 55.0563 84.866 55.0563C84.6677 55.1558 84.9652 55.6536 84.7669 55.9523C83.9737 57.147 79.0166 60.9303 78.8183 61.1294C78.2235 61.5276 77.6286 60.9303 77.3312 61.4281C78.0252 62.3241 80.1072 64.9126 80.3055 65.0122C80.8012 65.1117 80.4046 64.2157 80.5037 64.0166C80.6029 63.6184 83.0815 61.6272 83.9737 60.8307C84.2712 60.532 84.6677 61.2289 84.866 61.5276C85.1634 62.0254 85.3617 62.5232 85.1635 63.1206C85.0643 63.5188 84.4695 64.0166 84.866 64.3153C85.4609 63.6184 87.2454 61.5276 87.4437 61.3285C87.7412 61.0298 86.8489 61.3285 86.948 61.2289C86.5514 61.4281 86.254 61.4281 85.8574 61.2289C85.7583 61.1294 84.7669 60.1338 84.866 60.0342C85.2626 59.636 85.8574 59.0386 86.3532 58.9391C87.2454 58.74 87.9394 60.4325 88.0386 61.0298C88.1377 61.6272 88.1377 62.2245 87.9394 62.8219C87.8403 63.2201 87.4437 63.5188 87.9394 63.7179C88.6334 62.7223 89.3274 61.8263 90.0214 60.8307C90.2197 60.6316 90.0214 60.532 89.9223 60.532C90.1206 60.532 89.8231 60.4325 89.9223 60.532Z" fill="white"/>
    <path d="M79.8098 56.3505C81.9909 54.4589 82.2883 51.273 80.6029 49.0827C78.7192 46.5937 75.2492 45.9964 72.8698 47.9876C70.6886 49.8792 70.3912 52.9655 72.0766 55.2554C74.0595 57.9435 77.2321 58.2422 79.8098 56.3505C80.9995 55.4545 79.7106 56.4501 79.8098 56.3505ZM79.314 51.6712C78.7192 53.1646 77.1329 54.7576 75.6458 55.3549C73.8612 56.0519 72.5724 54.5585 73.2664 52.7664C73.9603 51.273 75.4475 49.6801 76.9346 49.0827C78.8183 48.3858 80.008 49.9787 79.314 51.6712C79.4132 51.4721 78.9175 52.5673 79.314 51.6712Z" fill="white"/>
    <path d="M73.4646 41.8149C73.9603 41.9144 74.3569 42.3127 74.7535 41.8149C74.0595 40.9188 73.2663 40.0228 72.5723 39.2263C71.9775 39.525 72.5724 39.7241 72.3741 40.2219C72.1758 40.6202 69.7964 41.0184 69.2015 41.118C69.3998 40.5206 70.0938 38.5294 70.3912 38.3303C70.8869 37.9321 71.2835 38.7285 71.6801 38.2307C70.7878 37.1356 69.8955 36.0404 69.0032 34.9453C68.7058 34.5471 68.4084 33.9497 68.0118 34.2484C68.0118 34.2484 68.0118 35.7418 67.9127 35.9409C67.8135 36.14 67.0204 39.525 66.0289 40.421C65.5332 40.8193 63.8478 42.3127 63.3521 42.5118C62.8564 42.7109 62.559 41.9144 62.1624 42.5118C62.9555 43.5074 63.8478 44.503 64.6409 45.4986C64.7401 45.5981 65.2358 46.3946 65.4341 46.3946C65.9298 46.4942 65.5332 45.4986 65.5332 45.2995C65.7315 44.9012 68.0118 42.6114 69.0032 42.4122C70.1929 42.2131 71.9775 41.7153 73.4646 41.8149C73.7621 41.9144 73.0681 41.8149 73.4646 41.8149Z" fill="white"/>
    <path d="M67.2187 22.7991C63.253 22.5999 64.8392 18.8167 67.6152 18.0202C70.1929 17.2237 75.6458 19.7127 77.3312 21.4052C74.5552 22.3013 70.9861 22.1021 68.0118 22.3013C67.8135 19.1154 67.0204 20.2105 67.2187 22.7991Z" fill="#DC6243"/>
    <path d="M76.6372 35.244C68.1109 35.1444 73.8612 22.0026 76.7363 22.7991C80.1072 23.8942 79.7106 35.3435 76.6372 35.244Z" fill="#DC6243"/>
    <path d="M82.6849 30.9629C81.8918 33.4519 80.3055 33.9497 80.5038 30.8634C80.702 27.3788 82.9823 28.1753 85.3617 26.881C87.3446 25.7858 88.4352 21.7039 91.9052 24.0933C93.4914 25.1885 95.276 24.2925 95.7717 25.8854C95.7717 25.7858 91.3103 36.14 93.7889 36.14C88.8317 36.14 91.0129 30.266 92.8966 26.2836C91.112 27.1797 88.1377 32.9541 90.5172 33.8501C89.2283 35.5426 85.3617 37.733 83.3789 36.14C81.8917 35.0449 82.6849 32.9541 82.6849 30.9629Z" fill="#DC6243"/>
    <path d="M86.7497 40.5206C83.2797 41.5162 78.7192 39.3259 84.2712 38.2307C87.7412 37.5338 91.4094 38.9277 86.7497 40.5206C86.8489 40.5206 86.6506 40.5206 86.7497 40.5206Z" fill="#DC6243"/>
    <path d="M91.112 40.421C90.418 38.7285 91.7068 36.8369 93.7888 38.2307C95.5734 39.4255 92.8966 41.3171 91.112 40.421Z" fill="#DC6243"/>
    <path d="M88.1377 45.0008C85.7583 44.3039 77.7278 44.4034 82.9823 42.2131C84.6677 41.6158 93.0949 42.4122 88.1377 45.0008Z" fill="#DC6243"/>
    <path d="M98.5477 48.2862C97.1597 47.0915 95.6725 46.992 94.3837 48.2862C92.5991 45.0008 86.1549 46.0959 83.0815 45.5981C84.6677 49.6801 97.7545 50.4765 98.5477 48.2862Z" fill="#DC6243"/>
    <path d="M96.664 50.7752C93.4914 50.6757 90.0214 50.1779 87.1463 50.8748C89.03 51.3726 93.4914 52.6668 89.3274 53.762C90.8146 55.9523 93.2931 55.7532 94.8794 53.8615C94.1854 53.5629 93.888 53.1646 93.2931 52.7664C94.8794 52.4677 96.4657 51.5717 96.664 50.7752Z" fill="#DC6243"/>
    <path d="M100.233 46.8924C94.9786 43.8061 96.2674 41.5162 100.63 39.3259C102.91 38.2307 107.867 34.1488 109.949 35.4431C106.677 39.3259 103.406 43.1092 100.233 46.8924Z" fill="#DC6243"/>
    <path d="M96.4657 39.6246C92.0043 35.0449 103.108 35.4431 104.893 33.8501C106.182 34.2484 115.6 25.5867 117.88 26.1841C116.195 28.0757 112.725 34.2484 110.147 34.2484C108.165 34.2484 106.182 33.9497 104.695 35.3435C102.513 37.4343 98.8451 38.4299 96.4657 39.6246Z" fill="#F49774"/>
    <path d="M97.9529 34.0493C95.4743 35.3435 93.194 30.1664 97.4571 30.6642C100.233 30.9629 103.108 30.4651 105.686 30.8634C103.703 33.1532 101.026 34.4475 97.9529 34.0493Z" fill="#F4B1A4"/>
    <path d="M110.445 52.2686C110.643 52.866 110.742 53.5629 110.643 54.2598C110.544 55.1558 109.652 57.147 108.462 56.5496C107.272 55.9523 106.281 54.8571 105.289 53.9611C106.083 53.0651 106.777 52.2686 108.165 52.6668C108.561 52.7664 108.859 52.6668 108.462 52.3682C108.065 52.169 105.389 50.377 105.19 50.5761C104.893 50.8748 105.686 51.4721 105.389 52.0695C105.19 52.4677 104.794 52.866 104.496 53.2642C103.802 52.6668 102.613 51.9699 103.406 50.9743C103.901 50.2774 104.695 49.7796 105.488 49.6801C106.083 49.5805 107.272 50.0783 107.471 49.4809C106.38 48.9831 105.289 48.4853 104.199 47.888C104.397 48.6845 100.927 52.3682 100.134 53.3638C100.035 53.4633 99.44 53.9611 99.44 54.1602C99.44 54.5585 100.035 54.2598 100.134 54.2598C100.63 54.0607 106.876 59.3373 107.074 59.7355C107.173 60.0342 106.876 60.3329 107.074 60.4325C107.074 60.4325 107.272 60.6316 107.371 60.6316C107.768 60.1338 111.833 54.658 112.725 54.4589C111.932 53.2642 111.139 52.0695 110.346 50.7752C109.751 51.0739 110.346 51.7708 110.445 52.2686Z" fill="white"/>
    <path d="M104.298 58.9391C102.216 57.6448 98.746 60.2333 98.2503 60.4325C97.2588 60.9303 96.4657 59.9347 96.9614 58.9391C97.4571 58.1426 98.3494 57.7444 99.2417 57.6448C99.5391 57.6448 100.531 57.8439 100.729 57.6448C100.828 57.4457 100.927 57.4457 100.729 57.3461C99.8366 56.7488 99.0434 56.1514 98.1511 55.6536C97.9528 56.7488 96.7631 57.3461 96.0691 58.043C95.276 58.9391 94.582 59.9347 94.582 61.2289C94.582 62.3241 95.276 63.3197 96.2674 63.917C97.358 64.5144 98.5477 64.0166 99.5391 63.4192C100.134 63.021 100.828 62.5232 101.423 62.2245C102.414 61.7267 103.703 62.125 103.406 63.5188C103.108 64.6139 102.018 65.6095 101.026 65.8087C100.431 66.0078 99.7374 65.9082 99.1426 65.7091C98.746 65.6095 98.1511 65.0122 97.9528 65.6095C99.1426 66.406 100.233 67.302 101.423 68.0985C101.522 67.302 101.919 67.0034 102.513 66.5056C103.207 65.9082 103.901 65.2113 104.496 64.4148C105.686 62.7223 106.083 60.3329 104.298 58.9391Z" fill="white"/>
    <path d="M104.298 58.9391C103.703 58.4413 105.289 59.5364 104.298 58.9391V58.9391Z" fill="white"/>
    <path d="M140.683 19.5136C139.989 20.2105 132.355 17.2237 131.76 16.726C131.463 16.6264 131.463 15.4317 131.066 15.9295C130.67 16.4273 130.273 16.9251 129.877 17.4229C129.48 17.9207 129.084 18.4185 128.588 18.9163C128.29 19.2149 128.092 19.4141 128.588 19.6132C129.381 19.2149 133.942 26.881 133.545 28.0757C132.851 28.4739 126.704 22.9982 126.506 22.6995C126.407 22.5999 126.803 21.7039 126.308 21.8035C126.109 21.8035 125.614 22.6995 125.415 22.8986C125.118 23.2969 124.82 23.5955 124.523 23.9938C124.82 24.4916 125.019 23.9938 125.514 23.9938C125.911 24.0933 127.299 25.288 127.696 25.6863C127.002 25.6863 125.019 25.7858 124.82 25.7858C123.928 25.8854 124.424 25.0889 123.829 24.8898C123.036 25.7858 122.342 26.6819 121.549 27.6775C121.152 28.1753 120.656 28.7726 120.26 29.2704C120.161 29.37 120.26 29.2704 120.26 29.37C120.557 29.6687 120.359 29.5691 120.855 29.37C121.35 29.1709 127.398 34.2484 127.596 34.5471C127.993 34.9453 127.398 35.5426 127.993 35.7418C128.588 35.0449 129.183 34.2484 129.778 33.5515C129.877 33.4519 129.877 33.4519 129.778 33.3523C129.381 32.9541 129.282 33.5515 128.786 33.5515C128.29 33.4519 124.424 30.1664 122.937 28.9717C124.721 28.8722 130.174 28.6731 131.066 28.6731C131.364 28.6731 132.157 29.5691 132.157 29.8678C132.058 30.266 131.661 30.4651 132.256 30.6642C132.752 30.0669 133.248 29.5691 133.743 28.9717L133.942 28.6731C134.041 28.5735 134.041 28.5735 134.14 28.3744L134.338 28.1753C134.735 27.6775 136.123 26.1841 135.924 26.0845C135.429 25.6863 135.23 26.5823 134.636 25.985C134.338 25.7858 133.446 24.1929 133.248 23.7947C132.95 23.3964 133.842 22.8986 134.239 22.6995C135.032 22.2017 137.412 21.5048 137.709 22.9982C137.709 23.2969 137.412 23.496 137.61 23.6951C137.61 23.6951 137.808 23.8942 137.907 23.8942C138.106 23.6951 140.287 21.1066 141.179 19.9118C140.882 19.7127 140.782 19.6132 140.683 19.5136ZM133.347 21.7039C133.446 21.7039 133.545 21.6044 133.347 21.7039C133.049 21.903 132.653 22.2017 132.355 22.5004C131.86 21.6044 131.364 20.7083 130.769 19.8123C131.959 20.3101 133.148 20.8079 134.239 21.3057C134.041 21.4052 133.743 21.5048 133.347 21.7039Z" fill="white"/>
    <path d="M123.73 32.8545C121.35 30.8634 118.178 31.4607 116.195 33.651C114.311 35.9409 114.51 39.3259 116.79 41.2175C119.07 43.1092 122.441 42.6114 124.325 40.4211C126.208 38.1312 126.109 34.7462 123.73 32.8545ZM123.432 39.4255C123.432 39.4255 123.432 39.525 123.432 39.4255C122.144 40.7197 120.062 39.525 118.971 38.7285C117.88 37.9321 115.898 36.14 117.087 34.6466C118.178 33.3523 120.161 34.4475 121.251 35.1444C122.441 35.9409 124.622 37.733 123.532 39.3259C123.631 39.2263 123.631 39.2263 123.432 39.4255Z" fill="white"/>
    <path d="M123.73 32.8546C123.432 32.6554 124.92 33.8501 123.73 32.8546V32.8546Z" fill="white"/>
    <path d="M123.432 39.5255C123.432 39.4255 123.432 39.4255 123.432 39.5255C123.532 39.4255 123.532 39.4255 123.532 39.4255C123.432 39.4255 123.432 39.5255 123.432 39.5255Z" fill="white"/>
    <path d="M117.186 41.9144C117.286 42.014 117.484 42.2131 117.186 41.9144C114.311 39.7241 110.941 40.3215 108.759 43.0096C107.768 44.2043 106.777 45.399 105.785 46.5937C106.182 47.0915 106.578 46.4942 107.074 46.7928C107.471 47.0915 113.221 51.8704 113.32 52.169C113.518 52.6668 113.023 52.6668 113.419 53.0651C113.617 53.1646 117.88 47.888 118.277 46.8924C119.169 45.1003 118.574 43.2087 117.186 41.9144ZM115.898 48.6845C115.699 48.9832 115.898 48.784 115.204 49.3814C114.906 49.6801 108.859 44.7021 109.057 44.503C109.85 43.607 111.635 42.91 112.626 43.2087C114.807 43.7065 117.781 46.3946 115.898 48.6845Z" fill="white"/>
  </svg>

</svg>
